<?xml version="1.0" encoding="UTF-8" standalone="no"?><!DOCTYPE svg PUBLIC "-//W3C//DTD SVG 1.1//EN" "http://www.w3.org/Graphics/SVG/1.1/DTD/svg11.dtd"><svg width="100%" height="100%" viewBox="0 0 576 512" version="1.1" xmlns="http://www.w3.org/2000/svg" xmlns:xlink="http://www.w3.org/1999/xlink" xml:space="preserve" xmlns:serif="http://www.serif.com/" style="fill-rule:evenodd;clip-rule:evenodd;stroke-linejoin:round;stroke-miterlimit:1.41421;"><path d="M528.12,301.319l47.273,-208c3.413,-15.018 -8.002,-29.319 -23.403,-29.319l-392.782,0l-9.166,-44.81c-2.284,-11.169 -12.112,-19.19 -23.513,-19.19l-102.529,0c-13.255,0 -24,10.745 -24,24l0,16c0,13.255 10.745,24 24,24l69.883,0l70.248,343.435c-16.806,9.665 -28.131,27.787 -28.131,48.565c0,30.928 25.072,56 56,56c30.928,0 56,-25.072 56,-56c0,-15.674 -6.447,-29.835 -16.824,-40l209.647,0c-10.376,10.165 -16.823,24.326 -16.823,40c0,30.928 25.072,56 56,56c30.928,0 56,-25.072 56,-56c0,-22.172 -12.888,-41.332 -31.579,-50.405l5.517,-24.276c3.413,-15.018 -8.002,-29.319 -23.403,-29.319l-268.418,0l-6.545,-32l293.145,0c11.206,0 20.92,-7.754 23.403,-18.681Z" style="fill:#fff;fill-rule:nonzero;"/></svg>